<svg width="15" height="11" viewBox="0 0 15 11" fill="none" xmlns="http://www.w3.org/2000/svg">
<path fill-rule="evenodd" clip-rule="evenodd" d="M12.9501 0.598748C13.5633 0.767 14.0461 1.26276 14.21 1.89232C14.5078 3.03333 14.5078 5.41406 14.5078 5.41406C14.5078 5.41406 14.5078 7.79471 14.21 8.93581C14.0461 9.56537 13.5633 10.0611 12.9501 10.2295C11.8389 10.5352 7.38281 10.5352 7.38281 10.5352C7.38281 10.5352 2.92669 10.5352 1.81543 10.2295C1.20228 10.0611 0.719399 9.56537 0.555524 8.93581C0.257812 7.79471 0.257812 5.41406 0.257812 5.41406C0.257812 5.41406 0.257812 3.03333 0.555524 1.89232C0.719399 1.26276 1.20228 0.767 1.81543 0.598748C2.92669 0.292969 7.38281 0.292969 7.38281 0.292969C7.38281 0.292969 11.8389 0.292969 12.9501 0.598748ZM6.04689 3.41011V7.86324L9.60939 5.63676L6.04689 3.41011Z" fill="white"/>
</svg>
