<svg width="15" height="15" viewBox="0 0 15 15" fill="none" xmlns="http://www.w3.org/2000/svg">
<path fill-rule="evenodd" clip-rule="evenodd" d="M14.4453 7.18153C14.4453 7.66338 14.3963 8.14456 14.2999 8.6136C14.206 9.0715 14.0668 9.52104 13.8845 9.95079C13.7064 10.3729 13.4854 10.7797 13.2273 11.1591C12.973 11.5361 12.68 11.8897 12.3582 12.2121C12.0357 12.5331 11.6808 12.8253 11.304 13.0807C10.9234 13.337 10.516 13.5577 10.0936 13.7366C9.66322 13.9179 9.21264 14.0569 8.75514 14.1507C8.28547 14.2473 7.80254 14.2966 7.31999 14.2966C6.83708 14.2966 6.35418 14.2473 5.88518 14.1507C5.42698 14.0569 4.97643 13.9179 4.54639 13.7366C4.12403 13.5577 3.71625 13.337 3.33564 13.0807C2.95884 12.8253 2.60397 12.5331 2.28214 12.2121C1.95998 11.8897 1.66702 11.5361 1.41234 11.1591C1.15558 10.7797 0.934288 10.3729 0.75547 9.95079C0.573139 9.52104 0.433643 9.07147 0.339354 8.6136C0.244033 8.14456 0.195312 7.66338 0.195312 7.18153C0.195312 6.69932 0.244005 6.21711 0.339382 5.7491C0.433671 5.2912 0.573167 4.84096 0.755498 4.41191C0.934316 3.98945 1.15561 3.58229 1.41237 3.2029C1.66704 2.82561 1.96001 2.47262 2.28217 2.14986C2.604 1.82883 2.95887 1.53738 3.33567 1.28238C3.71628 1.02493 4.12406 0.804343 4.54642 0.62506C4.97645 0.443325 5.42698 0.304031 5.88521 0.210936C6.3542 0.115056 6.83711 0.0664062 7.32002 0.0664062C7.80257 0.0664062 8.28547 0.115056 8.75516 0.210936C9.21267 0.304059 9.66322 0.443353 10.0936 0.62506C10.516 0.804315 10.9234 1.02493 11.304 1.28238C11.6808 1.53738 12.0357 1.82883 12.3582 2.14986C12.68 2.47262 12.973 2.82561 13.2273 3.2029C13.4854 3.58229 13.7064 3.98948 13.8845 4.41191C14.0668 4.84096 14.206 5.2912 14.2999 5.7491C14.3963 6.21711 14.4453 6.69932 14.4453 7.18153ZM4.72379 1.68571C3.02698 2.48583 1.76056 4.04712 1.36566 5.92873C1.52608 5.93012 4.06171 5.96209 6.98317 5.18698C5.93003 3.31856 4.80486 1.79379 4.72379 1.68571ZM7.48729 6.12261C4.3543 7.05922 1.34792 6.99182 1.24008 6.98767C1.23833 7.05298 1.2352 7.11619 1.2352 7.18152C1.2352 8.74244 1.82492 10.1655 2.79422 11.2414C2.79213 11.2383 4.45729 8.28839 7.74093 7.22808C7.82025 7.20168 7.90098 7.17804 7.98099 7.15512C7.82828 6.80981 7.66159 6.46377 7.48729 6.12261ZM11.3384 2.62132C10.2672 1.67806 8.86056 1.1059 7.31997 1.1059C6.82557 1.1059 6.34579 1.16566 5.8862 1.27613C5.97733 1.39844 7.12027 2.91247 8.16088 4.82045C10.4568 3.96096 11.3235 2.64354 11.3384 2.62132ZM8.39576 8.16193C8.38221 8.16642 8.36866 8.17029 8.35541 8.17513C4.7653 9.42489 3.5929 11.9435 3.58021 11.971C4.61321 12.7732 5.90885 13.2571 7.32001 13.2571C8.16265 13.2571 8.96529 13.0858 9.69557 12.7756C9.60546 12.2448 9.25198 10.384 8.39576 8.16193ZM10.7202 12.2205C12.0864 11.2998 13.0568 9.83789 13.3275 8.14453C13.2022 8.10423 11.4998 7.56608 9.53583 7.8805C10.334 10.0706 10.6582 11.8543 10.7202 12.2205ZM8.62923 5.72584C8.77045 6.01559 8.90721 6.3105 9.03349 6.60688C9.07839 6.71321 9.12223 6.81744 9.16501 6.92165C11.2553 6.65899 13.3146 7.1009 13.4027 7.11895C13.3888 5.67858 12.8728 4.35665 12.019 3.32171C12.0075 3.33801 11.0316 4.7461 8.62923 5.72584Z" fill="white"/>
</svg>
