<svg width="15" height="15" viewBox="0 0 15 15" fill="none" xmlns="http://www.w3.org/2000/svg">
<path fill-rule="evenodd" clip-rule="evenodd" d="M7.78973 0.0664062C5.85468 0.0664062 5.61183 0.0748673 4.85183 0.109454C4.0933 0.144188 3.57555 0.264275 3.12251 0.440473C2.65389 0.622459 2.25637 0.865899 1.86033 1.26208C1.464 1.65812 1.22056 2.05564 1.03798 2.52411C0.861338 2.9773 0.741102 3.4952 0.706961 4.25343C0.672969 5.01343 0.664062 5.25643 0.664062 7.19148C0.664062 9.12653 0.672672 9.36864 0.70711 10.1286C0.741993 10.8872 0.86208 11.4049 1.03813 11.858C1.22026 12.3266 1.4637 12.7241 1.85989 13.1201C2.25577 13.5165 2.65329 13.7605 3.12162 13.9425C3.57495 14.1187 4.09286 14.2388 4.85123 14.2735C5.61124 14.3081 5.85394 14.3166 7.78884 14.3166C9.72404 14.3166 9.96614 14.3081 10.7262 14.2735C11.4847 14.2388 12.003 14.1187 12.4564 13.9425C12.9248 13.7605 13.3218 13.5165 13.7176 13.1201C14.114 12.7241 14.3574 12.3266 14.54 11.8581C14.7152 11.4049 14.8354 10.887 14.871 10.1288C14.9052 9.36878 14.9141 9.12653 14.9141 7.19148C14.9141 5.25643 14.9052 5.01358 14.871 4.25357C14.8354 3.49505 14.7152 2.9773 14.54 2.52426C14.3574 2.05564 14.114 1.65812 13.7176 1.26208C13.3213 0.865751 12.925 0.62231 12.4559 0.440473C12.0017 0.264275 11.4836 0.144188 10.7251 0.109454C9.96511 0.0748673 9.72315 0.0664062 7.7875 0.0664062H7.78973ZM7.15052 1.35038C7.34023 1.35009 7.5519 1.35038 7.7897 1.35038C9.69209 1.35038 9.91757 1.35721 10.6688 1.39135C11.3635 1.42312 11.7406 1.5392 11.9917 1.63672C12.3242 1.76586 12.5613 1.92024 12.8105 2.16962C13.0599 2.419 13.2143 2.6565 13.3437 2.989C13.4412 3.23986 13.5574 3.6169 13.5891 4.31159C13.6232 5.0627 13.6306 5.28832 13.6306 7.18983C13.6306 9.09133 13.6232 9.31696 13.5891 10.0681C13.5573 10.7628 13.4412 11.1398 13.3437 11.3907C13.2146 11.7232 13.0599 11.9599 12.8105 12.2091C12.5611 12.4585 12.3244 12.6129 11.9917 12.742C11.7408 12.84 11.3635 12.9558 10.6688 12.9876C9.91772 13.0217 9.69209 13.0291 7.7897 13.0291C5.88716 13.0291 5.66168 13.0217 4.91058 12.9876C4.21588 12.9555 3.83885 12.8394 3.58754 12.7419C3.25504 12.6128 3.01753 12.4584 2.76816 12.209C2.51878 11.9596 2.3644 11.7227 2.23496 11.3901C2.13744 11.1392 2.02121 10.7622 1.98959 10.0675C1.95545 9.31637 1.94862 9.09074 1.94862 7.18805C1.94862 5.28535 1.95545 5.06092 1.98959 4.30981C2.02136 3.61512 2.13744 3.23808 2.23496 2.98692C2.3641 2.65442 2.51878 2.41692 2.76816 2.16754C3.01753 1.91816 3.25504 1.76379 3.58754 1.63435C3.8387 1.53638 4.21588 1.4206 4.91058 1.38868C5.56786 1.35899 5.82259 1.35009 7.15052 1.3486V1.35038ZM11.593 2.53345C11.121 2.53345 10.738 2.91597 10.738 3.38816C10.738 3.86019 11.121 4.24317 11.593 4.24317C12.065 4.24317 12.448 3.86019 12.448 3.38816C12.448 2.91612 12.065 2.53345 11.593 2.53345ZM7.78974 3.53244C5.76904 3.53244 4.13072 5.17076 4.13072 7.19146C4.13072 9.21216 5.76904 10.8497 7.78974 10.8497C9.81044 10.8497 11.4482 9.21216 11.4482 7.19146C11.4482 5.17076 9.81044 3.53244 7.78974 3.53244ZM7.78971 4.81644C9.10132 4.81644 10.1647 5.87971 10.1647 7.19146C10.1647 8.50307 9.10132 9.56649 7.78971 9.56649C6.47796 9.56649 5.41469 8.50307 5.41469 7.19146C5.41469 5.87971 6.47796 4.81644 7.78971 4.81644Z" fill="white"/>
</svg>
