<svg width="14" height="12" viewBox="0 0 14 12" fill="none" xmlns="http://www.w3.org/2000/svg">
<path fill-rule="evenodd" clip-rule="evenodd" d="M6.45145 3.6907L6.47949 4.15296L6.01225 4.09636C4.31154 3.87938 2.82574 3.14353 1.56422 1.90768L0.947477 1.29447L0.788619 1.7473C0.452213 2.75674 0.667139 3.82277 1.36798 4.53976C1.74177 4.93598 1.65767 4.99259 1.01289 4.75674C0.788619 4.68127 0.592382 4.62466 0.573693 4.65296C0.508281 4.719 0.732551 5.57749 0.910099 5.91712C1.15306 6.38881 1.64832 6.85108 2.19031 7.12466L2.6482 7.34164L2.10621 7.35108C1.58291 7.35108 1.56422 7.36051 1.62029 7.55863C1.80718 8.17183 2.54541 8.82278 3.36773 9.1058L3.9471 9.30391L3.44249 9.6058C2.69492 10.0398 1.81653 10.285 0.938133 10.3039C0.517625 10.3133 0.171875 10.3511 0.171875 10.3794C0.171875 10.4737 1.31192 11.002 1.97538 11.2096C3.96579 11.8228 6.32997 11.5586 8.10545 10.5115C9.36697 9.76618 10.6285 8.28504 11.2172 6.85108C11.5349 6.08693 11.8526 4.6907 11.8526 4.02089C11.8526 3.58692 11.8807 3.53032 12.404 3.01145C12.7123 2.70957 13.002 2.37938 13.0581 2.28504C13.1515 2.10579 13.1422 2.10579 12.6656 2.26617C11.8713 2.54919 11.7592 2.51145 12.1517 2.08692C12.4413 1.78504 12.7871 1.23787 12.7871 1.07749C12.7871 1.04919 12.6469 1.09636 12.4881 1.18126C12.3199 1.2756 11.9461 1.41711 11.6657 1.50202L11.1611 1.6624L10.7032 1.35107C10.4509 1.18126 10.0958 0.992583 9.90896 0.935979C9.43238 0.803904 8.7035 0.822772 8.27365 0.973715C7.10557 1.39824 6.36735 2.49258 6.45145 3.6907Z" fill="white"/>
</svg>
